M48
; DRILL file {KiCad 7.0.10} date Sat 20 Jan 2024 12:44:12 GMT
; FORMAT={-:-/ absolute / inch / decimal}
; #@! TF.CreationDate,2024-01-20T12:44:12+00:00
; #@! TF.GenerationSoftware,Kicad,Pcbnew,7.0.10
; #@! TF.FileFunction,Plated,1,2,PTH
FMAT,2
INCH
; #@! TA.AperFunction,Plated,PTH,ViaDrill
T1C0.0157
; #@! TA.AperFunction,Plated,PTH,ComponentDrill
T2C0.0354
; #@! TA.AperFunction,Plated,PTH,ComponentDrill
T3C0.0394
%
G90
G05
T1
X3.5882Y-2.2535
X3.6Y-2.1866
X3.6722Y-2.2278
X4.3952Y-1.9952
T3
X4.5Y-1.9307
X4.5Y-2.0307
X4.5Y-2.1307
X4.5Y-2.2307
X4.5Y-2.3307
X4.5Y-2.4307
X4.6Y-1.9307
X4.6Y-2.0307
X4.6Y-2.1307
X4.6Y-2.2307
X4.6Y-2.3307
X4.6Y-2.4307
T2
G00X3.2157Y-1.9091
M15
G01X3.1843Y-1.9091
M16
G05
G00X3.2157Y-2.4799
M15
G01X3.1843Y-2.4799
M16
G05
G00X3.4701Y-1.9091
M15
G01X3.3992Y-1.9091
M16
G05
G00X3.4701Y-2.4799
M15
G01X3.3992Y-2.4799
M16
G05
M30
