%TF.GenerationSoftware,KiCad,Pcbnew,7.0.10*%
%TF.CreationDate,2024-01-20T12:44:41+00:00*%
%TF.ProjectId,arty_hdmi_pmod,61727479-5f68-4646-9d69-5f706d6f642e,rev?*%
%TF.SameCoordinates,Original*%
%TF.FileFunction,Copper,L2,Bot*%
%TF.FilePolarity,Positive*%
%FSLAX46Y46*%
G04 Gerber Fmt 4.6, Leading zero omitted, Abs format (unit mm)*
G04 Created by KiCad (PCBNEW 7.0.10) date 2024-01-20 12:44:41*
%MOMM*%
%LPD*%
G01*
G04 APERTURE LIST*
%TA.AperFunction,ComponentPad*%
%ADD10O,3.300000X1.500000*%
%TD*%
%TA.AperFunction,ComponentPad*%
%ADD11O,2.300000X1.500000*%
%TD*%
%TA.AperFunction,ComponentPad*%
%ADD12R,1.700000X1.700000*%
%TD*%
%TA.AperFunction,ComponentPad*%
%ADD13O,1.700000X1.700000*%
%TD*%
%TA.AperFunction,ViaPad*%
%ADD14C,0.800000*%
%TD*%
%TA.AperFunction,Conductor*%
%ADD15C,0.250000*%
%TD*%
%TA.AperFunction,Conductor*%
%ADD16C,0.200000*%
%TD*%
G04 APERTURE END LIST*
D10*
%TO.P,J1,SH,SH*%
%TO.N,GND*%
X87240000Y-62990000D03*
X87240000Y-48490000D03*
D11*
X81280000Y-62990000D03*
X81280000Y-48490000D03*
%TD*%
D12*
%TO.P,J2,1,Pin_1*%
%TO.N,3V3*%
X114300000Y-49040000D03*
D13*
%TO.P,J2,2,Pin_2*%
X116840000Y-49040000D03*
%TO.P,J2,3,Pin_3*%
%TO.N,GND*%
X114300000Y-51580000D03*
%TO.P,J2,4,Pin_4*%
X116840000Y-51580000D03*
%TO.P,J2,5,Pin_5*%
%TO.N,CH1_N*%
X114300000Y-54120000D03*
%TO.P,J2,6,Pin_6*%
%TO.N,CLK_N*%
X116840000Y-54120000D03*
%TO.P,J2,7,Pin_7*%
%TO.N,CH1_P*%
X114300000Y-56660000D03*
%TO.P,J2,8,Pin_8*%
%TO.N,CLK_P*%
X116840000Y-56660000D03*
%TO.P,J2,9,Pin_9*%
%TO.N,CH0_N*%
X114300000Y-59200000D03*
%TO.P,J2,10,Pin_10*%
%TO.N,CH2_N*%
X116840000Y-59200000D03*
%TO.P,J2,11,Pin_11*%
%TO.N,CH0_P*%
X114300000Y-61740000D03*
%TO.P,J2,12,Pin_12*%
%TO.N,CH2_P*%
X116840000Y-61740000D03*
%TD*%
D14*
%TO.N,GND*%
X111637347Y-50677347D03*
%TO.N,CH0_P*%
X91140000Y-57240000D03*
%TO.N,CH0_N*%
X93272891Y-56587109D03*
%TO.N,CLK_P*%
X91440000Y-55540000D03*
%TD*%
D15*
%TO.N,GND*%
X111637347Y-50677347D02*
X113397347Y-50677347D01*
X113397347Y-50677347D02*
X114300000Y-51580000D01*
D16*
%TO.N,CH0_P*%
X96240000Y-61740000D02*
X114300000Y-61740000D01*
X91740000Y-57240000D02*
X96240000Y-61740000D01*
X91140000Y-57240000D02*
X91740000Y-57240000D01*
%TO.N,CH0_N*%
X95885782Y-59200000D02*
X114300000Y-59200000D01*
X93272891Y-56587109D02*
X95885782Y-59200000D01*
%TO.N,CLK_P*%
X91470000Y-55510000D02*
X115690000Y-55510000D01*
X115690000Y-55510000D02*
X116840000Y-56660000D01*
X91440000Y-55540000D02*
X91470000Y-55510000D01*
%TD*%
M02*
